<svg width="34" height="34" viewBox="0 0 34 34" fill="none" xmlns="http://www.w3.org/2000/svg">
<path d="M16.5137 29.3639V25.7829" stroke="white" stroke-width="2.20367" stroke-miterlimit="10" stroke-linecap="round" stroke-linejoin="round"/>
<path d="M20.7557 30.4106C17.7727 29.1742 14.96 29.2965 12.2716 30.4106" stroke="white" stroke-width="2.20367" stroke-miterlimit="10" stroke-linecap="round" stroke-linejoin="round"/>
<path d="M26.1547 11.3618C26.1547 7.51195 23.898 4.18964 20.6354 2.64437" stroke="white" stroke-width="2.20367" stroke-miterlimit="10" stroke-linecap="round" stroke-linejoin="round"/>
<path d="M12.3919 2.64437C9.12934 4.18969 6.87256 7.51195 6.87256 11.3618" stroke="white" stroke-width="2.20367" stroke-miterlimit="10" stroke-linecap="round" stroke-linejoin="round"/>
<path d="M5.49714 2.64438C4.68608 3.66798 4.01512 4.8075 3.51196 6.03357" stroke="white" stroke-width="2.20367" stroke-miterlimit="10" stroke-linecap="round" stroke-linejoin="round"/>
<path d="M29.5153 6.03357C29.0122 4.8075 28.3412 3.66798 27.5302 2.64438" stroke="white" stroke-width="2.20367" stroke-miterlimit="10" stroke-linecap="round" stroke-linejoin="round"/>
<path fill-rule="evenodd" clip-rule="evenodd" d="M16.0729 6.23914C12.764 6.23914 10.0817 8.9215 10.0817 12.2304V19.7917C10.0817 23.1006 12.764 25.7829 16.0729 25.7829H16.9819C20.2908 25.7829 22.9731 23.1006 22.9731 19.7917V12.2304C22.9731 8.9215 20.2908 6.23914 16.9819 6.23914H16.0729ZM15.0399 18.2629C14.4238 18.2629 13.9243 18.7624 13.9243 19.3785C13.9243 19.9947 14.4238 20.4941 15.0399 20.4941H18.0355C18.6517 20.4941 19.1512 19.9947 19.1512 19.3785C19.1512 18.7624 18.6517 18.2629 18.0355 18.2629H15.0399Z" fill="white"/>
</svg>
