<svg width="141" height="113" viewBox="0 0 141 113" fill="none" xmlns="http://www.w3.org/2000/svg">
<path d="M70.2949 72.3154V63.4965" stroke="black" stroke-width="5.42705" stroke-miterlimit="10" stroke-linecap="round" stroke-linejoin="round"/>
<path d="M80.7421 74.8933C73.3956 71.8483 66.4686 72.1494 59.8479 74.8933" stroke="black" stroke-width="5.42705" stroke-miterlimit="10" stroke-linecap="round" stroke-linejoin="round"/>
<path d="M94.0383 27.9812C94.0383 18.5 88.4804 10.318 80.4456 6.51245" stroke="black" stroke-width="5.42705" stroke-miterlimit="10" stroke-linecap="round" stroke-linejoin="round"/>
<path d="M60.1445 6.51245C52.1096 10.3182 46.5518 18.5 46.5518 27.9812" stroke="black" stroke-width="5.42705" stroke-miterlimit="10" stroke-linecap="round" stroke-linejoin="round"/>
<path d="M43.1644 6.51246C41.1669 9.03332 39.5145 11.8397 38.2754 14.8591" stroke="black" stroke-width="5.42705" stroke-miterlimit="10" stroke-linecap="round" stroke-linejoin="round"/>
<path d="M102.315 14.8591C101.076 11.8397 99.4232 9.03332 97.4258 6.51246" stroke="black" stroke-width="5.42705" stroke-miterlimit="10" stroke-linecap="round" stroke-linejoin="round"/>
<path fill-rule="evenodd" clip-rule="evenodd" d="M69.2096 15.3652C61.0608 15.3652 54.4548 21.9712 54.4548 30.12V48.7416C54.4548 56.8905 61.0608 63.4964 69.2096 63.4964H71.4483C79.5972 63.4964 86.2031 56.8905 86.2031 48.7416V30.12C86.2031 21.9712 79.5972 15.3652 71.4483 15.3652H69.2096ZM66.6656 44.9767C65.1483 44.9767 63.9182 46.2068 63.9182 47.7242C63.9182 49.2415 65.1483 50.4716 66.6656 50.4716H74.043C75.5604 50.4716 76.7905 49.2415 76.7905 47.7242C76.7905 46.2068 75.5604 44.9767 74.043 44.9767H66.6656Z" fill="black"/>
<path d="M8.4182 93.4437H0V112.364H4.25023V106.332H8.4182C12.2023 106.332 15.054 103.562 15.054 99.8876C15.054 96.2132 12.2023 93.4437 8.4182 93.4437ZM8.33593 102.328H4.25023V97.4471H8.33593C9.67956 97.4471 10.6941 98.4891 10.6941 99.8876C10.6941 101.259 9.67956 102.328 8.33593 102.328Z" fill="black"/>
<path d="M23.3422 112.693C27.6473 112.693 30.8829 109.54 30.8829 105.372C30.8829 101.204 27.6473 98.0504 23.3422 98.0504C19.0371 98.0504 15.8015 101.204 15.8015 105.372C15.8015 109.54 19.0371 112.693 23.3422 112.693ZM23.3422 108.827C21.3679 108.827 19.9146 107.346 19.9146 105.372C19.9146 103.397 21.3679 101.917 23.3422 101.917C25.3165 101.917 26.7698 103.397 26.7698 105.372C26.7698 107.346 25.3165 108.827 23.3422 108.827Z" fill="black"/>
<path d="M43.4539 92.621V99.7779C42.3845 98.6811 40.9312 98.0504 39.2311 98.0504C35.3922 98.0504 32.4855 101.204 32.4855 105.372C32.4855 109.54 35.3922 112.693 39.2311 112.693C40.9312 112.693 42.3845 112.063 43.4539 110.966V112.364H47.4573V92.621H43.4539ZM40.0263 108.827C38.0794 108.827 36.6261 107.346 36.6261 105.372C36.6261 103.397 38.0794 101.917 40.0263 101.917C42.0006 101.917 43.4539 103.397 43.4539 105.372C43.4539 107.346 42.0006 108.827 40.0263 108.827Z" fill="black"/>
<path d="M55.5681 112.693C58.9683 112.693 61.6555 111.075 61.6555 108.004C61.6555 104.741 58.6941 104.056 56.5004 103.589C55.0745 103.288 54.0051 103.041 54.0051 102.246C54.0051 101.533 54.8826 101.231 55.952 101.231C57.323 101.231 58.4747 101.752 59.5167 102.465L61.3813 99.8876C60.0651 98.9279 58.2828 98.0504 55.8149 98.0504C52.6341 98.0504 50.0017 99.5311 50.0017 102.547C50.0017 105.838 52.9357 106.496 55.1568 106.99C56.5827 107.319 57.6521 107.593 57.6521 108.388C57.6521 109.128 56.7472 109.512 55.431 109.512C53.8132 109.512 52.497 108.909 51.4276 108.004L49.5629 110.582C50.934 111.706 52.9083 112.693 55.5681 112.693Z" fill="black"/>
<path d="M72.4493 102.026V98.3794H68.8571V94.9244H64.8537V98.3794H62.7423V102.026H64.8537V107.812C64.8537 110.691 66.3618 112.693 69.762 112.693C70.8314 112.693 71.6267 112.501 72.4493 112.09V108.333C71.9283 108.607 71.325 108.827 70.6121 108.827C69.433 108.827 68.8571 108.224 68.8571 107.154V102.026H72.4493Z" fill="black"/>
<path d="M84.7726 98.3794V99.7779C83.7032 98.6811 82.2499 98.0504 80.5498 98.0504C76.7109 98.0504 73.8043 101.204 73.8043 105.372C73.8043 109.54 76.7109 112.693 80.5498 112.693C82.2499 112.693 83.7032 112.063 84.7726 110.966V112.364H88.776V98.3794H84.7726ZM81.345 108.827C79.3981 108.827 77.9448 107.346 77.9448 105.372C77.9448 103.397 79.3981 101.917 81.345 101.917C83.3193 101.917 84.7726 103.397 84.7726 105.372C84.7726 107.346 83.3193 108.827 81.345 108.827Z" fill="black"/>
<path d="M100.781 102.026V98.3794H97.1884V94.9244H93.185V98.3794H91.0736V102.026H93.185V107.812C93.185 110.691 94.6931 112.693 98.0933 112.693C99.1627 112.693 99.9579 112.501 100.781 112.09V108.333C100.26 108.607 99.6563 108.827 98.9434 108.827C97.7643 108.827 97.1884 108.224 97.1884 107.154V102.026H100.781Z" fill="black"/>
<path d="M105.253 96.5971C106.679 96.5971 107.748 95.5551 107.748 94.1292C107.748 92.7307 106.679 91.6887 105.253 91.6887C103.855 91.6887 102.785 92.7307 102.785 94.1292C102.785 95.5551 103.855 96.5971 105.253 96.5971ZM103.251 112.364H107.255V98.3794H103.251V112.364Z" fill="black"/>
<path d="M117.146 112.693C121.451 112.693 124.687 109.54 124.687 105.372C124.687 101.204 121.451 98.0504 117.146 98.0504C112.841 98.0504 109.605 101.204 109.605 105.372C109.605 109.54 112.841 112.693 117.146 112.693ZM117.146 108.827C115.172 108.827 113.718 107.346 113.718 105.372C113.718 103.397 115.172 101.917 117.146 101.917C119.12 101.917 120.574 103.397 120.574 105.372C120.574 107.346 119.12 108.827 117.146 108.827Z" fill="black"/>
<path d="M135.311 98.0504C133.583 98.0504 132.158 98.6536 131.061 99.7779V98.3794H127.057V112.364H131.061V104.769C131.061 103.041 132.24 101.917 133.94 101.917C135.585 101.917 136.655 103.014 136.655 104.714V112.364H140.658V103.37C140.658 100.162 138.519 98.0504 135.311 98.0504Z" fill="black"/>
</svg>
