<svg width="200" height="100" viewBox="0 0 200 100" fill="none" xmlns="http://www.w3.org/2000/svg">
<path d="M15 85L25 15L30 30" stroke="white" stroke-width="8" stroke-linecap="round" stroke-linejoin="round"/>
<path d="M30 30L40 45L48 25" stroke="white" stroke-width="8" stroke-linecap="round" stroke-linejoin="round"/>
<path d="M48 25L58 55L68 40" stroke="white" stroke-width="8" stroke-linecap="round" stroke-linejoin="round"/>
<path d="M68 40L75 60L85 85" stroke="white" stroke-width="8" stroke-linecap="round" stroke-linejoin="round"/>
<path d="M100.085 60.3707C98.8409 60.3707 97.7628 60.1534 96.8509 59.7188C95.9474 59.2756 95.2827 58.6193 94.8565 57.75C94.4304 56.8807 94.3239 55.8026 94.5369 54.5156C94.7244 53.4247 95.0781 52.5128 95.598 51.7798C96.1264 51.0384 96.7699 50.4418 97.5284 49.9901C98.2869 49.5384 99.1264 49.1932 100.047 48.9545C100.976 48.7159 101.935 48.554 102.923 48.4688C104.065 48.3494 104.994 48.2344 105.71 48.1236C106.435 48.0128 106.976 47.8551 107.334 47.6506C107.692 47.4375 107.909 47.1222 107.986 46.7045V46.6278C108.114 45.8267 107.964 45.2045 107.538 44.7614C107.121 44.3097 106.452 44.0838 105.531 44.0838C104.56 44.0838 103.733 44.2969 103.051 44.723C102.378 45.1491 101.896 45.6903 101.607 46.3466L96.6463 45.9375C97.0895 44.7443 97.7585 43.7131 98.6534 42.8438C99.5568 41.9659 100.643 41.2926 101.913 40.8239C103.183 40.3466 104.607 40.108 106.183 40.108C107.274 40.108 108.293 40.2358 109.239 40.4915C110.193 40.7472 111.016 41.1435 111.706 41.6804C112.405 42.2173 112.908 42.9077 113.214 43.7514C113.53 44.5866 113.594 45.5881 113.406 46.7557L111.195 60H106.03L106.49 57.277H106.337C105.919 57.8906 105.408 58.4318 104.803 58.9006C104.197 59.3608 103.503 59.723 102.719 59.9872C101.935 60.2429 101.057 60.3707 100.085 60.3707ZM102.271 56.6122C103.064 56.6122 103.793 56.4545 104.457 56.1392C105.131 55.8153 105.685 55.3807 106.119 54.8352C106.563 54.2898 106.844 53.6719 106.963 52.9815L107.295 50.8977C107.125 51.0085 106.878 51.1065 106.554 51.1918C106.239 51.277 105.893 51.358 105.518 51.4347C105.152 51.5028 104.781 51.5668 104.406 51.6264C104.031 51.6776 103.695 51.7287 103.396 51.7798C102.74 51.8736 102.152 52.0227 101.632 52.2273C101.112 52.4318 100.69 52.7088 100.366 53.0582C100.043 53.3991 99.8423 53.8253 99.7656 54.3366C99.6463 55.0781 99.821 55.6449 100.29 56.0369C100.767 56.4205 101.428 56.6122 102.271 56.6122ZM115.458 60L118.731 40.3636H123.908L123.346 43.8281H123.563C124.16 42.6776 124.991 41.7699 126.056 41.1051C127.13 40.4403 128.336 40.108 129.674 40.108C131.004 40.108 132.086 40.4446 132.921 41.1179C133.765 41.7827 134.251 42.6861 134.379 43.8281H134.583C135.163 42.7031 136.036 41.804 137.204 41.1307C138.371 40.4489 139.675 40.108 141.116 40.108C142.931 40.108 144.32 40.6918 145.283 41.8594C146.246 43.027 146.549 44.6719 146.191 46.794L143.992 60H138.546L140.592 47.8679C140.754 46.7685 140.592 45.9503 140.106 45.4134C139.62 44.8679 138.942 44.5952 138.073 44.5952C137.085 44.5952 136.262 44.9105 135.606 45.5412C134.95 46.1634 134.545 46.9858 134.391 48.0085L132.359 60H127.079L129.15 47.7528C129.295 46.7812 129.137 46.0142 128.677 45.4517C128.225 44.8807 127.548 44.5952 126.644 44.5952C126.048 44.5952 125.481 44.7486 124.944 45.0554C124.415 45.3537 123.968 45.7756 123.602 46.321C123.235 46.858 122.996 47.4886 122.886 48.2131L120.891 60H115.458ZM147.067 67.3636L151.592 40.3636H156.962L156.412 43.6619H156.655C156.979 43.1335 157.409 42.5966 157.946 42.0511C158.491 41.4972 159.169 41.0369 159.979 40.6705C160.788 40.2955 161.739 40.108 162.83 40.108C164.27 40.108 165.527 40.483 166.601 41.233C167.675 41.9744 168.45 43.0952 168.928 44.5952C169.413 46.0866 169.469 47.9574 169.094 50.2074C168.736 52.3977 168.075 54.2472 167.112 55.7557C166.158 57.2557 165.011 58.3935 163.673 59.169C162.344 59.9361 160.933 60.3196 159.442 60.3196C158.385 60.3196 157.516 60.1449 156.834 59.7955C156.161 59.446 155.636 59.0071 155.261 58.4787C154.886 57.9418 154.622 57.4006 154.469 56.8551H154.264L152.526 67.3636H147.067ZM155.287 50.1818C155.099 51.3494 155.091 52.3679 155.261 53.2372C155.44 54.1065 155.798 54.7841 156.335 55.2699C156.872 55.7472 157.58 55.9858 158.457 55.9858C159.344 55.9858 160.132 55.7429 160.822 55.2571C161.513 54.7628 162.088 54.081 162.548 53.2116C163.009 52.3338 163.337 51.3239 163.533 50.1818C163.712 49.0483 163.716 48.0511 163.545 47.1903C163.375 46.3295 163.026 45.6562 162.497 45.1705C161.969 44.6847 161.253 44.4418 160.349 44.4418C159.472 44.4418 158.683 44.6761 157.984 45.1449C157.294 45.6136 156.719 46.2784 156.259 47.1392C155.798 48 155.474 49.0142 155.287 50.1818ZM180.865 33.8182L176.518 60H171.072L175.419 33.8182H180.865ZM180.881 60L184.153 40.3636H189.599L186.327 60H180.881ZM187.439 37.8068C186.629 37.8068 185.96 37.5384 185.432 37.0014C184.912 36.456 184.699 35.8082 184.793 35.0582C184.886 34.2912 185.253 33.6435 185.892 33.1151C186.531 32.5781 187.256 32.3097 188.065 32.3097C188.875 32.3097 189.536 32.5781 190.047 33.1151C190.558 33.6435 190.771 34.2912 190.686 35.0582C190.601 35.8082 190.239 36.456 189.599 37.0014C188.969 37.5384 188.249 37.8068 187.439 37.8068Z" fill="white"/>
</svg>
